<?xml version="1.0" encoding="UTF-8" standalone="no"?>
<svg
style="fill: #ffffff"
   enable-background="new 0 0 24 24"
   height="24px"
   id="Layer_1"
   version="1.1"
   viewBox="0 0 24 24"
   width="24px"
   xml:space="preserve"
   sodipodi:docname="humidity_icon-3.svg"
   inkscape:version="1.1.1 (3bf5ae0d25, 2021-09-20)"
   xmlns:inkscape="http://www.inkscape.org/namespaces/inkscape"
   xmlns:sodipodi="http://sodipodi.sourceforge.net/DTD/sodipodi-0.dtd"
   xmlns="http://www.w3.org/2000/svg"
   xmlns:svg="http://www.w3.org/2000/svg"><defs
     id="defs17" /><sodipodi:namedview
     id="namedview15"
     
     inkscape:pageshadow="2"
     inkscape:pageopacity="0.0"
     inkscape:pagecheckerboard="0"
     showgrid="false"
     inkscape:zoom="21.183741"
     inkscape:cx="8.898334"
     inkscape:cy="8.2846558"
     inkscape:window-width="1920"
     inkscape:window-height="1137"
     inkscape:window-x="-8"
     inkscape:window-y="-8"
     inkscape:window-maximized="1"
     inkscape:current-layer="Layer_1" /><path
     d="m 20,18.6 c -0.7,0 -1.2,-0.4 -1.2,-0.4 C 18.1,17.4 17.1,17 16,17 c -1.1,0 -2.1,0.4 -2.8,1.2 0,0 -0.5,0.4 -1.2,0.4 -0.7,0 -1.2,-0.4 -1.2,-0.4 C 10.1,17.4 9.1,17 8,17 6.7,17 5.2,18.2 5.2,18.2 4.9,18.4 4.5,18.6 4,18.6 3.3,18.6 2.8,18.2 2.8,18.2 2.1,17.4 1.1,17 0,17 v 2 c 0.4,0 0.9,0.2 1.2,0.4 0,0 1.7,1.2 2.8,1.2 1.1,0 2,-0.5 2.8,-1.2 0,0 0.7,-0.4 1.2,-0.4 0.5,0 0.9,0.2 1.2,0.4 0,0 1.7,1.2 2.8,1.2 1.5,0 2.8,-1.2 2.8,-1.2 0.3,-0.2 0.7,-0.4 1.2,-0.4 0.5,0 0.9,0.2 1.2,0.4 0,0 1.7,1.2 2.8,1.2 1.1,0 2,-0.5 2.8,-1.2 0,0 0.7,-0.4 1.2,-0.4 v -2 c -1.3,0 -2.8,1.2 -2.8,1.2 -0.3,0.2 -0.8,0.4 -1.2,0.4 z"
     id="path2" /><path
     d="M 21.2,5.2 C 20.9,5.4 20.5,5.6 20,5.6 19.3,5.6 18.8,5.2 18.8,5.2 18.1,4.4 17.1,4 16,4 14.9,4 13.9,4.4 13.2,5.2 13.2,5.2 12.7,5.6 12,5.6 11.3,5.6 10.8,5.2 10.8,5.2 10.1,4.4 9.1,4 8,4 6.7,4 5.2,5.2 5.2,5.2 4.9,5.4 4.4,5.6 4,5.6 3.3,5.6 2.8,5.2 2.8,5.2 2.1,4.4 1.1,4 0,4 v 2 c 0.4,0 0.9,0.2 1.2,0.4 0,0 1.7,1.2 2.8,1.2 1.1,0 2,-0.5 2.8,-1.2 0,0 0.8,-0.4 1.2,-0.4 0.4,0 0.9,0.2 1.2,0.4 0,0 1.7,1.2 2.8,1.2 1.5,0 2.8,-1.2 2.8,-1.2 C 15.1,6.2 15.6,6 16,6 c 0.4,0 0.9,0.2 1.2,0.4 0,0 1.7,1.2 2.8,1.2 1.1,0 2,-0.5 2.8,-1.2 0,0 0.7,-0.4 1.2,-0.4 V 4 c -1.3,0 -2.8,1.2 -2.8,1.2 z"
     id="path10" /><path
     d="m 21.2,9.5333338 c -0.3,0.2 -0.7,0.3999996 -1.2,0.3999996 -0.7,0 -1.2,-0.3999996 -1.2,-0.3999996 -0.7,-0.8 -1.7,-1.2 -2.8,-1.2 -1.1,0 -2.1,0.4 -2.8,1.2 0,0 -0.5,0.3999996 -1.2,0.3999996 -0.7,0 -1.2,-0.3999996 -1.2,-0.3999996 -0.7,-0.8 -1.7000002,-1.2 -2.8000002,-1.2 -1.3,0 -2.8,1.2 -2.8,1.2 -0.3,0.2 -0.8,0.3999996 -1.2,0.3999996 -0.7,0 -1.2,-0.3999996 -1.2,-0.3999996 -0.7,-0.8 -1.7,-1.2 -2.8,-1.2 v 1.9999992 c 0.4,0 0.9,0.2 1.2,0.4 0,0 1.7,1.2 2.8,1.2 1.1,0 2,-0.5 2.8,-1.2 0,0 0.8,-0.4 1.2,-0.4 0.4,0 0.9,0.2 1.2,0.4 0,0 1.7000002,1.2 2.8000002,1.2 1.5,0 2.8,-1.2 2.8,-1.2 0.3,-0.2 0.8,-0.4 1.2,-0.4 0.4,0 0.9,0.2 1.2,0.4 0,0 1.7,1.2 2.8,1.2 1.1,0 2,-0.5 2.8,-1.2 0,0 0.7,-0.4 1.2,-0.4 V 8.3333338 c -1.3,0 -2.8,1.2 -2.8,1.2 z"
     id="path10-2" /><path
     d="m 21.2,13.866667 c -0.3,0.2 -0.7,0.4 -1.2,0.4 -0.7,0 -1.2,-0.4 -1.2,-0.4 -0.7,-0.8 -1.7,-1.2 -2.8,-1.2 -1.1,0 -2.1,0.4 -2.8,1.2 0,0 -0.5,0.4 -1.2,0.4 -0.7,0 -1.2,-0.4 -1.2,-0.4 -0.7,-0.8 -1.7000001,-1.2 -2.8000001,-1.2 -1.3,0 -2.8,1.2 -2.8,1.2 -0.3,0.2 -0.8,0.4 -1.2,0.4 -0.7000001,0 -1.2000001,-0.4 -1.2000001,-0.4 -0.6999999,-0.8 -1.7,-1.2 -2.79999997,-1.2 v 2 c 0.4,0 0.89999995,0.2 1.20000007,0.4 0,0 1.6999999,1.2 2.8,1.2 1.0999999,0 2,-0.5 2.7999999,-1.2 0,0 0.8,-0.4 1.2000001,-0.4 0.4,0 0.9,0.2 1.2,0.4 0,0 1.7000001,1.2 2.8000001,1.2 1.5,0 2.8,-1.2 2.8,-1.2 0.3,-0.2 0.8,-0.4 1.2,-0.4 0.4,0 0.9,0.2 1.2,0.4 0,0 1.7,1.2 2.8,1.2 1.1,0 2,-0.5 2.8,-1.2 0,0 0.7,-0.4 1.2,-0.4 v -2 c -1.3,0 -2.8,1.2 -2.8,1.2 z"
     id="path10-7" /></svg>
