<?xml version="1.0" encoding="UTF-8" standalone="no"?>
<svg
style="fill: #fff"
   enable-background="new 0 0 24 24"
   height="24px"
   id="Layer_1"
   version="1.1"
   viewBox="0 0 24 24"
   width="24px"
   xml:space="preserve"
   sodipodi:docname="humidity_icon.svg"
   inkscape:version="1.1.1 (3bf5ae0d25, 2021-09-20)"
   xmlns:inkscape="http://www.inkscape.org/namespaces/inkscape"
   xmlns:sodipodi="http://sodipodi.sourceforge.net/DTD/sodipodi-0.dtd"
   xmlns="http://www.w3.org/2000/svg"
   xmlns:svg="http://www.w3.org/2000/svg"><defs
     id="defs11"><marker
       style="overflow:visible"
       id="DotL"
       refX="0.0"
       refY="0.0"
       orient="auto"
       inkscape:stockid="DotL"
       inkscape:isstock="true"><path
         transform="scale(0.8) translate(7.4, 1)"
         style="fill-rule:evenodd;fill:context-stroke;stroke:context-stroke;stroke-width:1.0pt"
         d="M -2.5,-1.0 C -2.5,1.7600000 -4.7400000,4.0 -7.5,4.0 C -10.260000,4.0 -12.5,1.7600000 -12.5,-1.0 C -12.5,-3.7600000 -10.260000,-6.0 -7.5,-6.0 C -4.7400000,-6.0 -2.5,-3.7600000 -2.5,-1.0 z "
         id="path1633" /></marker></defs><sodipodi:namedview
     id="namedview9"
     pagecolor="#ffffff"
     bordercolor="#666666"
     borderopacity="1.0"
     inkscape:pageshadow="2"
     inkscape:pageopacity="0.0"
     inkscape:pagecheckerboard="0"
     showgrid="false"
     inkscape:zoom="21.183741"
     inkscape:cx="17.537035"
     inkscape:cy="16.828945"
     inkscape:window-width="1920"
     inkscape:window-height="1137"
     inkscape:window-x="-8"
     inkscape:window-y="-8"
     inkscape:window-maximized="1"
     inkscape:current-layer="Layer_1" /><g
     id="g2455"><path
       d="M 12,0 C 6,6 2,8.5 2,14 2,19.5 6.5,24 12,24 17.5,24 22,19.5 22,14 22,8.5 18,6 12,0 Z m 0,22 C 7.6,22 4,18.4 4,14 4,9.6 9,6 12,3 c 3,3 8,6.6 8,11 0,4.4 -3.6,8 -8,8 z"
       id="path2" /><path
       id="path4"
       style="stroke:none;stroke-width:0;stroke-linecap:butt;stroke-linejoin:round;stroke-miterlimit:4;stroke-dasharray:none;stroke-opacity:1;paint-order:normal"
       d="M 16.658203 8.8730469 A 0.50272024 0.48476595 0 0 0 16.15625 9.3574219 A 0.50272024 0.48476595 0 0 0 16.302734 9.6972656 L 16.300781 9.6992188 C 17.400781 10.799219 18.099609 12.300391 18.099609 13.900391 C 18.099609 15.500391 17.389062 17.140625 16.289062 18.140625 A 0.57057881 0.55020106 0 0 0 16.048828 18.587891 A 0.57057881 0.55020106 0 0 0 16.619141 19.136719 A 0.57057881 0.55020106 0 0 0 16.998047 18.998047 L 17 19 C 17.015397 18.984603 17.029693 18.968634 17.044922 18.953125 C 17.046865 18.951146 17.048841 18.949246 17.050781 18.947266 A 0.57057881 0.55020106 0 0 0 17.052734 18.943359 C 18.317662 17.650597 19 15.971766 19 14 C 19 12.026014 18.22093 10.344126 17.046875 9.0507812 A 0.50272024 0.48476595 0 0 0 17.013672 9.015625 A 0.50272024 0.48476595 0 0 0 16.658203 8.8730469 z " /></g></svg>
