<?xml version="1.0" encoding="UTF-8" standalone="no"?>
<svg
   style="fill: #fff"
   enable-background="new 0 0 24 24"
   height="24px"
   id="Layer_1"
   version="1.1"
   viewBox="0 0 24 24"
   width="24px"
   xml:space="preserve"
   sodipodi:docname="pressure_icon.svg"
   inkscape:version="1.1.1 (3bf5ae0d25, 2021-09-20)"
   xmlns:inkscape="http://www.inkscape.org/namespaces/inkscape"
   xmlns:sodipodi="http://sodipodi.sourceforge.net/DTD/sodipodi-0.dtd"
   xmlns="http://www.w3.org/2000/svg"
   xmlns:svg="http://www.w3.org/2000/svg"><defs
     id="defs13" /><sodipodi:namedview
     id="namedview11"
     pagecolor="#ffffff"
     bordercolor="#666666"
     borderopacity="1.0"
     inkscape:pageshadow="2"
     inkscape:pageopacity="0.0"
     inkscape:pagecheckerboard="0"
     showgrid="false"
     inkscape:zoom="29.958333"
     inkscape:cx="12"
     inkscape:cy="12"
     inkscape:window-width="1920"
     inkscape:window-height="1137"
     inkscape:window-x="-8"
     inkscape:window-y="-8"
     inkscape:window-maximized="1"
     inkscape:current-layer="Layer_1" /><g
     id="g2614"
     transform="translate(0.03337985,0.00101148)"><path
       d="M 19.96662,16.329624 H 0.96662031 c -0.5,0 -1,-0.4 -1,-1 v 0 c 0,-0.5 0.4,-1 1,-1 H 19.96662 c 1.1,0 2,-0.9 2,-2 0,-1.1 -0.9,-2 -2,-2 -1.1,0 -2,0.9 -2,2 0,0.6 -0.4,1 -1,1 -0.6,0 -1,-0.4 -1,-1 0,-2.2 1.8,-3.9999995 4,-3.9999995 2.2,0 4,1.7999995 4,3.9999995 0,2.2 -1.8,4 -4,4 z"
       id="path6"
       style="fill:#ffffff;fill-opacity:1" /><path
       id="path6-3"
       d="m 0.96662031,18.088456 c -0.6,0 -1,0.5 -1,1 0,0.6 0.5,1 1,1 h 9.54882769 2.902344 9.548828 c 0.5,0 1,-0.4 1,-1 0,-0.5 -0.4,-1 -1,-1 h -9.548828 -2.902344 z"
       style="fill:#ffffff;fill-opacity:1" /><path
       id="path6-3-2"
       d="m 0.96662031,21.495133 c -0.6,0 -1,0.5 -1,1 0,0.6 0.5,1 1,1 h 9.54882769 2.902344 9.548829 c 0.499999,0 0.999999,-0.4 0.999999,-1 0,-0.5 -0.399999,-1 -0.999999,-1 h -9.548829 -2.902344 z"
       style="fill:#ffffff;fill-opacity:1" /><g
       id="g3753"
       style="fill:#ffffff;fill-opacity:1;stroke:#ffffff;stroke-width:0.792074;stroke-linecap:round;stroke-linejoin:round;stroke-miterlimit:4;stroke-dasharray:none;stroke-opacity:1"
       transform="matrix(0.75750493,0,0,-0.75750493,16.195437,22.178522)"><rect
         style="fill:#ffffff;fill-opacity:1;fill-rule:evenodd;stroke:#ffffff;stroke-width:0.792074;stroke-linecap:round;stroke-linejoin:round;stroke-miterlimit:4;stroke-dasharray:none;stroke-opacity:1"
         id="rect2033"
         width="7.0710678"
         height="1.407814"
         x="3.5247159"
         y="18.025331"
         transform="rotate(44.999999)"
         ry="0.70390701" /><rect
         style="fill:#ffffff;fill-opacity:1;fill-rule:evenodd;stroke:#ffffff;stroke-width:0.792074;stroke-linecap:round;stroke-linejoin:round;stroke-miterlimit:4;stroke-dasharray:none;stroke-opacity:1"
         id="rect2033-5"
         width="7.0710678"
         height="1.407814"
         x="18.025331"
         y="3.5247164"
         transform="matrix(-0.70710679,0.70710677,0.70710677,0.70710679,0,0)"
         ry="0.70390701" /></g><rect
       style="fill:#ffffff;fill-opacity:1;fill-rule:evenodd;stroke:#ffffff;stroke-width:0.6;stroke-linecap:round;stroke-linejoin:round;stroke-miterlimit:4;stroke-dasharray:none;stroke-opacity:1"
       id="rect2033-5-2"
       width="9.5791235"
       height="1.066426"
       x="-10.381968"
       y="7.8951602"
       transform="rotate(-90)"
       ry="0.53321302" /></g></svg>
