<?xml version="1.0" encoding="UTF-8" standalone="no"?>
<svg
style="fill: #fff"
   enable-background="new 0 0 24 24"
   height="24px"
   id="Layer_1"
   version="1.1"
   viewBox="0 0 24 24"
   width="24px"
   xml:space="preserve"
   sodipodi:docname="sunrise_icon.svg"
   inkscape:version="1.1.1 (3bf5ae0d25, 2021-09-20)"
   xmlns:inkscape="http://www.inkscape.org/namespaces/inkscape"
   xmlns:sodipodi="http://sodipodi.sourceforge.net/DTD/sodipodi-0.dtd"
   xmlns="http://www.w3.org/2000/svg"
   xmlns:svg="http://www.w3.org/2000/svg"><defs
     id="defs23"><marker
       style="overflow:visible"
       id="Arrow1Lstart"
       refX="0.0"
       refY="0.0"
       orient="auto"
       inkscape:stockid="Arrow1Lstart"
       inkscape:isstock="true"><path
         transform="scale(0.8) translate(12.5,0)"
         style="fill-rule:evenodd;fill:context-stroke;stroke:context-stroke;stroke-width:1.0pt"
         d="M 0.0,0.0 L 5.0,-5.0 L -12.5,0.0 L 5.0,5.0 L 0.0,0.0 z "
         id="path3931" /></marker><clipPath
       clipPathUnits="userSpaceOnUse"
       id="clipPath4325"><g
         inkscape:label="Clip"
         id="use4327"><rect
           style="fill:#fff;fill-rule:evenodd;stroke:#fff;stroke-width:0.6;stroke-linecap:round;stroke-linejoin:round;stroke-miterlimit:4;stroke-dasharray:none;stroke-opacity:1"
           id="rect4331"
           width="7.097765"
           height="1.066426"
           x="8.2195501"
           y="-8.3197803"
           transform="matrix(0,1,1,1.8739852e-8,-3.2988892,1.9020622)"
           ry="0.53321302" /></g></clipPath></defs><sodipodi:namedview
     id="namedview21"
     pagecolor="#ffffff"
     bordercolor="#666666"
     borderopacity="1.0"
     inkscape:pageshadow="2"
     inkscape:pageopacity="0.0"
     inkscape:pagecheckerboard="0"
     showgrid="false"
     inkscape:zoom="33.64769"
     inkscape:cx="-0.40121625"
     inkscape:cy="13.507614"
     inkscape:window-width="1920"
     inkscape:window-height="1137"
     inkscape:window-x="-8"
     inkscape:window-y="-8"
     inkscape:window-maximized="1"
     inkscape:current-layer="Layer_1" /><path
     d="M 1,13 H 4.1 C 4,12.7 4,12.3 4,12 4,11.7 4,11.3 4.1,11 H 1 c -0.6,0 -1,0.4 -1,1 0,0.6 0.4,1 1,1 z"
     id="path2" /><path
     d="M 5.7,7.1 C 5.9,6.8 6.1,6.6 6.4,6.3 6.7,6 6.9,5.8 7.2,5.6 L 4.9,3.5 c -0.4,-0.4 -1,-0.4 -1.4,0 -0.4,0.4 -0.4,1 0,1.4 z"
     id="path4" /><path
     d="M 13,4.1 V 1 C 13,0.4 12.6,0 12,0 11.4,0 11,0.4 11,1 V 4.1 C 11.3,4 11.7,4 12,4 c 0.3,0 1,0 1,0.1 z"
     id="path6" /><path
     d="m 18.3,7.1 2.2,-2.2 c 0.4,-0.4 0.4,-1 0,-1.4 -0.4,-0.4 -1,-0.4 -1.4,0 l -2.2,2.2 c 0.3,0.2 0.5,0.4 0.8,0.7 0.2,0.2 0.6,0.7 0.6,0.7 z"
     id="path8" /><path
     d="m 20,12 c 0,0.3 0,1 -0.1,1 H 23 c 0.6,0 1,-0.4 1,-1 0,-0.6 -0.4,-1 -1,-1 h -3.1 c 0.1,0.3 0.1,0.7 0.1,1 z"
     id="path10" /><path
     d="m 12,8 v 1 c 1.7,0 3,1.3 3,3 h 1 C 16,9.8 14.2,8 12,8 Z"
     id="path12" /><path
     d="M 19,12 C 19,8.1 15.9,5 12,5 8.1,5 5,8.1 5,12 c 0,0.7 0.1,1.4 0.3,2 H 0 v 1 H 24 V 14 H 18.7 C 18.9,13.4 19,12.7 19,12 Z m -2.4,2 H 7.4 C 7.2,13.4 7,12.7 7,12 7,9.2 9.2,7 12,7 c 2.8,0 5,2.2 5,5 0,0.7 -0.2,1.4 -0.4,2 z"
     id="path14" /><g
     id="g3777"
     transform="matrix(0.75750493,0,0,0.75750493,19.767064,4.599774)"
     style="fill:#fff;stroke:#fff;stroke-width:0.79207405;stroke-linecap:round;stroke-linejoin:round;stroke-miterlimit:4;stroke-dasharray:none;stroke-opacity:1"><g
       id="g3753"
       style="fill:#fff;stroke:#fff;stroke-width:0.79207405;stroke-linecap:round;stroke-linejoin:round;stroke-miterlimit:4;stroke-dasharray:none;stroke-opacity:1"><rect
         style="fill:#fff;fill-rule:evenodd;stroke:#fff;stroke-width:0.79207405;stroke-linecap:round;stroke-linejoin:round;stroke-miterlimit:4;stroke-dasharray:none;stroke-opacity:1"
         id="rect2033"
         width="7.0710678"
         height="1.407814"
         x="3.5247159"
         y="18.025331"
         transform="rotate(44.999999)"
         ry="0.70390701" /><rect
         style="fill:#fff;fill-rule:evenodd;stroke:#fff;stroke-width:0.79207405;stroke-linecap:round;stroke-linejoin:round;stroke-miterlimit:4;stroke-dasharray:none;stroke-opacity:1"
         id="rect2033-5"
         width="7.0710678"
         height="1.407814"
         x="18.025331"
         y="3.5247164"
         transform="matrix(-0.70710679,0.70710677,0.70710677,0.70710679,0,0)"
         ry="0.70390701" /></g><rect
       style="fill:#fff;fill-rule:evenodd;stroke:#fff;stroke-width:0.79207405;stroke-linecap:round;stroke-linejoin:round;stroke-miterlimit:4;stroke-dasharray:none;stroke-opacity:1"
       id="rect2033-5-2"
       width="9.3699255"
       height="1.407814"
       x="15.84473"
       y="-10.95739"
       transform="matrix(0,1,1,1.8739852e-8,0,0)"
       ry="0.70390701" /></g></svg>
