<?xml version="1.0" encoding="UTF-8" standalone="no"?>
<svg
   enable-background="new 0 0 24 24"
   height="24px"
   id="Layer_1"
   version="1.1"
   viewBox="0 0 24 24"
   width="24px"
   xml:space="preserve"
   sodipodi:docname="temperature_icon.svg"
   inkscape:version="1.1.1 (3bf5ae0d25, 2021-09-20)"
   xmlns:inkscape="http://www.inkscape.org/namespaces/inkscape"
   xmlns:sodipodi="http://sodipodi.sourceforge.net/DTD/sodipodi-0.dtd"
   xmlns="http://www.w3.org/2000/svg"
   xmlns:svg="http://www.w3.org/2000/svg"><defs
     id="defs11" /><sodipodi:namedview
     id="namedview9"
     pagecolor="#ffffff"
     bordercolor="#666666"
     borderopacity="1.0"
     inkscape:pageshadow="2"
     inkscape:pageopacity="0.0"
     inkscape:pagecheckerboard="0"
     showgrid="false"
     inkscape:zoom="29.958333"
     inkscape:cx="6.1919332"
     inkscape:cy="12"
     inkscape:window-width="1920"
     inkscape:window-height="1137"
     inkscape:window-x="-8"
     inkscape:window-y="-8"
     inkscape:window-maximized="1"
     inkscape:current-layer="Layer_1" /><g
     id="g6"
     transform="matrix(0.99642519,0,0,1,0.04289772,1)"><path
       d="M 16,12.6 V 3 C 16,0.8 14.2,-1 12,-1 9.8,-1 8,0.8 8,3 v 9.6 c -1.2,1.1 -2,2.7 -2,4.4 0,3.3 2.7,6 6,6 3.3,0 6,-2.7 6,-6 0,-1.8 -0.8,-3.3 -2,-4.4 z M 12,21 C 9.8,21 8,19.2 8,17 8,15.5 8.8,14.2 10,13.6 V 11 h 2 V 10 H 10 V 8 h 2 V 7 H 10 V 5 h 2 V 4 H 10 V 3 c 0,-1.1 0.9,-2 2,-2 1.1,0 2,0.9 2,2 v 10.6 c 1.2,0.7 2,2 2,3.4 0,2.2 -1.8,4 -4,4 z"
       id="path2" /><path
       d="m 12,14 v 1 c 1.1,0 2,0.9 2,2 h 1 c 0,-1.7 -1.3,-3 -3,-3 z"
       id="path4" /></g></svg>
